<?xml version="1.0" encoding="utf-8"?>
<!-- Generator: Adobe Illustrator 21.0.2, SVG Export Plug-In . SVG Version: 6.00 Build 0)  -->
<svg version="1.1" id="Layer_1" xmlns="http://www.w3.org/2000/svg" xmlns:xlink="http://www.w3.org/1999/xlink" x="0px" y="0px"
	 viewBox="0 0 100 100" style="enable-background:new 0 0 100 100;" xml:space="preserve">
<path d="M93.3,31.3c-1-0.5-2.3-0.4-3.2,0.3L77,41.9V40c0-5-4-9-9-9h-0.8L56.3,18.1c0,0-0.1-0.1-0.1-0.1c-0.1-0.1-0.1-0.2-0.2-0.2
	c-0.1-0.1-0.1-0.1-0.2-0.2c-0.1-0.1-0.2-0.1-0.2-0.2c-0.1,0-0.2-0.1-0.3-0.1c-0.1,0-0.2-0.1-0.3-0.1c-0.1,0-0.2-0.1-0.3-0.1
	c-0.1,0-0.2,0-0.3,0c-0.1,0-0.2,0-0.3,0c0,0-0.1,0-0.1,0H20c-1.7,0-3,1.3-3,3s1.3,3,3,3h32.6l6.8,8H14c-5,0-9,4-9,9v34c0,5,4,9,9,9
	h54c5,0,9-4,9-9v-1.9l13.2,10.2c0.5,0.4,1.2,0.6,1.8,0.6c0.4,0,0.9-0.1,1.3-0.3c1-0.5,1.7-1.5,1.7-2.7V34
	C95,32.9,94.3,31.8,93.3,31.3z M89,73.9L75.8,63.6c-0.9-0.7-2.1-0.8-3.2-0.3c-1,0.5-1.7,1.5-1.7,2.7v8c0,1.7-1.3,3-3,3H14
	c-1.7,0-3-1.3-3-3V40c0-1.7,1.3-3,3-3h54c1.7,0,3,1.3,3,3v8c0,1.1,0.7,2.2,1.7,2.7s2.3,0.4,3.2-0.3L89,40.1V73.9z M15,49
	c0-1.1,0.9-2,2-2h4c1.1,0,2,0.9,2,2s-0.9,2-2,2h-4C15.9,51,15,50.1,15,49z M27,49c0-1.1,0.9-2,2-2h4c1.1,0,2,0.9,2,2s-0.9,2-2,2h-4
	C27.9,51,27,50.1,27,49z M45,55H17c-1.1,0-2,0.9-2,2v14c0,1.1,0.9,2,2,2h28c1.1,0,2-0.9,2-2V57C47,55.9,46.1,55,45,55z M43,69H19V59
	h24V69z"/>
</svg>
