<?xml version="1.0" encoding="utf-8"?>
<!-- Generator: Adobe Illustrator 21.0.2, SVG Export Plug-In . SVG Version: 6.00 Build 0)  -->
<svg version="1.1" id="Layer_1" xmlns="http://www.w3.org/2000/svg" xmlns:xlink="http://www.w3.org/1999/xlink" x="0px" y="0px"
	 viewBox="0 0 100 100" style="enable-background:new 0 0 100 100;" xml:space="preserve">
<path d="M83,32v-1.7c2.4-1.1,4-3.5,4-6.3c0-3.9-3.1-7-7-7H20c-3.9,0-7,3.1-7,7c0,2.8,1.6,5.2,4,6.3V32c-6.6,0-12,5.4-12,12
	s5.4,12,12,12h5.3c5.1,7.3,13.3,12.3,22.7,12.9V83h-2c-5.5,0-10,4.5-10,10c0,1.1,0.9,2,2,2h30c1.1,0,2-0.9,2-2c0-5.5-4.5-10-10-10
	h-2V68.9c9.4-0.6,17.6-5.6,22.7-12.9H83c6.6,0,12-5.4,12-12S89.6,32,83,32z M17.2,42c0.1,1.4,0.4,2.7,0.7,4H17c-1.1,0-2-0.9-2-2
	c0-1.1,0.9-2,2-2H17.2z M17,52c-4.4,0-8-3.6-8-8c0-4.4,3.6-8,8-8v2c-3.3,0-6,2.7-6,6s2.7,6,6,6h2.1c0.3,0.7,0.6,1.3,0.9,2H17z
	 M57,87c2.6,0,4.8,1.7,5.7,4H37.3c0.8-2.3,3-4,5.7-4h4c1.1,0,2-0.9,2-2V69h2v16c0,1.1,0.9,2,2,2H57z M79,39c0,14.3-11.7,26-26,26h-6
	c-14.3,0-26-11.7-26-26v-8h58V39z M20,27c-1.7,0-3-1.4-3-3c0-1.7,1.3-3,3-3h60c1.7,0,3,1.3,3,3c0,1.6-1.3,3-3,3H20z M83,42
	c1.1,0,2,0.9,2,2c0,1.1-0.9,2-2,2h-0.8c0.3-1.3,0.5-2.6,0.7-4H83z M83,52h-3c0.3-0.7,0.6-1.3,0.9-2H83c3.3,0,6-2.7,6-6s-2.7-6-6-6
	v-2c4.4,0,8,3.6,8,8C91,48.4,87.4,52,83,52z M24,10c0-1.1,0.9-2,2-2h1V7c0-1.1,0.9-2,2-2s2,0.9,2,2v1h1c1.1,0,2,0.9,2,2s-0.9,2-2,2
	h-1v1c0,1.1-0.9,2-2,2s-2-0.9-2-2v-1h-1C24.9,12,24,11.1,24,10z M45,10c0-1.1,0.9-2,2-2h1V7c0-1.1,0.9-2,2-2s2,0.9,2,2v1h1
	c1.1,0,2,0.9,2,2s-0.9,2-2,2h-1v1c0,1.1-0.9,2-2,2s-2-0.9-2-2v-1h-1C45.9,12,45,11.1,45,10z M66,10c0-1.1,0.9-2,2-2h1V7
	c0-1.1,0.9-2,2-2s2,0.9,2,2v1h1c1.1,0,2,0.9,2,2s-0.9,2-2,2h-1v1c0,1.1-0.9,2-2,2s-2-0.9-2-2v-1h-1C66.9,12,66,11.1,66,10z M41.3,51
	L40,58.6c-0.1,0.8,0.2,1.5,0.8,2c0.6,0.5,1.4,0.5,2.1,0.2l7.1-3.6l7.1,3.6c0.3,0.2,0.6,0.2,0.9,0.2c0.4,0,0.8-0.1,1.2-0.4
	c0.6-0.5,0.9-1.2,0.8-2L58.7,51l5.7-5.4c0.5-0.5,0.8-1.3,0.5-2.1c-0.2-0.7-0.9-1.3-1.6-1.4l-8-1.1l-3.5-7c-0.3-0.7-1-1.1-1.8-1.1
	s-1.4,0.4-1.8,1.1l-3.5,7l-8,1.1c-0.8,0.1-1.4,0.6-1.6,1.4c-0.2,0.7,0,1.5,0.5,2.1L41.3,51z M46.3,44.9c0.6-0.1,1.2-0.5,1.5-1.1
	l2.2-4.4l2.2,4.4c0.3,0.6,0.9,1,1.5,1.1l4.9,0.7l-3.5,3.3c-0.5,0.5-0.7,1.1-0.6,1.8l0.8,4.7l-4.5-2.3c-0.3-0.2-0.6-0.2-0.9-0.2
	s-0.6,0.1-0.9,0.2l-4.5,2.3l0.8-4.7c0.1-0.7-0.1-1.3-0.6-1.8l-3.5-3.3L46.3,44.9z"/>
</svg>
