<?xml version="1.0" encoding="utf-8"?>
<!-- Generator: Adobe Illustrator 21.0.2, SVG Export Plug-In . SVG Version: 6.00 Build 0)  -->
<svg version="1.1" id="Layer_1" xmlns="http://www.w3.org/2000/svg" xmlns:xlink="http://www.w3.org/1999/xlink" x="0px" y="0px"
	 viewBox="0 0 100 100" style="enable-background:new 0 0 100 100;" xml:space="preserve">
<path d="M91.7,80.7L63.5,52.5c-0.8-0.8-1.8-1.2-2.8-1.2c-1,0-2,0.4-2.8,1.2L56.3,54L38.9,36.7l3.7-3.7l-0.5-0.5
	c-3.3-3.3-2.2-7.6,0-11.9l3.2-5.6c0.9-1.6,0.6-3.5-0.7-4.8L41,6.5c-0.9-0.9-2.1-1.3-3.2-1.3s-2.4,0.4-3.2,1.3l-26,26
	c-1.8,1.8-1.8,4.7,0,6.5l10.8,10.8c0.9,0.9,2.1,1.3,3.2,1.3c1.2,0,2.3-0.5,3.2-1.3l8.9-8.9L52,58.3l-1.6,1.5c-1.5,1.6-1.5,4.1,0,5.7
	l28.2,28.2c0.8,0.8,1.8,1.2,2.8,1.2c1,0,2-0.4,2.8-1.2l7.3-7.4C93.2,84.8,93.2,82.2,91.7,80.7z M36.8,17.8l-0.1,0.1
	c-2.8,5.6-3.4,10.4-1.8,14.4L22.6,44.6l-8.9-8.8l24-24l1.6,1.6l-2.5,4.3L36.8,17.8z M81.5,88L56.1,62.7l4.5-4.5L86,83.5L81.5,88z"/>
</svg>
