<?xml version="1.0" encoding="utf-8"?>
<!-- Generator: Adobe Illustrator 21.0.2, SVG Export Plug-In . SVG Version: 6.00 Build 0)  -->
<svg version="1.1" id="Layer_1" xmlns="http://www.w3.org/2000/svg" xmlns:xlink="http://www.w3.org/1999/xlink" x="0px" y="0px"
	 viewBox="0 0 100 100" style="enable-background:new 0 0 100 100;" xml:space="preserve">
<path d="M41.8,45h21.1c3.7,0,7.2-2,9-5.3c1.8-3.2,1.7-6.9-0.2-9.9c-0.4-0.7-0.9-1.3-1.5-1.8c-2.8-2.8-6.6-3.8-10.2-3.1
	c0.7-3.6-0.3-7.4-3.1-10.2c-0.6-0.6-1.2-1-1.8-1.5c-3-1.9-6.8-1.9-9.9-0.2c-3.3,1.8-5.3,5.3-5.3,9V43C39.9,44.1,40.8,45,41.8,45z
	 M43.8,21.9c0-2.4,1.2-4.5,3.3-5.6c1.9-1.1,4.2-1.1,6,0.1c0.4,0.3,0.8,0.6,1.1,0.9c2.9,2.9,2.9,7.7,0,10.6c-0.4,0.4-0.6,0.9-0.6,1.4
	s0.2,1,0.6,1.4c0.8,0.8,2,0.8,2.7,0c2.9-2.9,7.7-2.9,10.6,0c0.3,0.3,0.7,0.7,0.9,1.1c1.1,1.8,1.2,4.1,0.1,6
	c-1.2,2.1-3.3,3.3-5.6,3.3H43.8V21.9z M36.4,46.6H15.3c-3.7,0-7.2,2-9,5.3c-1.8,3.2-1.7,6.9,0.2,9.9c0.4,0.7,0.9,1.3,1.5,1.8
	c2.8,2.8,6.6,3.8,10.2,3.1c-0.7,3.6,0.3,7.4,3.1,10.2c0.6,0.6,1.2,1,1.9,1.5c1.6,1,3.3,1.5,5.1,1.5c1.7,0,3.3-0.4,4.9-1.3
	c3.3-1.8,5.3-5.3,5.3-9V48.5C38.3,47.4,37.4,46.6,36.4,46.6z M34.4,69.6c0,2.4-1.2,4.5-3.3,5.6c-1.9,1.1-4.2,1.1-6-0.1
	c-0.4-0.3-0.8-0.6-1.1-0.9c-2.9-2.9-2.9-7.7,0-10.6c0.4-0.4,0.6-0.9,0.6-1.4c0-0.5-0.2-1-0.6-1.4c-0.8-0.8-2-0.8-2.7,0
	c-2.9,2.9-7.7,2.9-10.6,0c-0.3-0.3-0.6-0.7-0.9-1.1c-1.1-1.8-1.2-4.1-0.1-6c1.2-2.1,3.3-3.3,5.6-3.3h19.2V69.6z M70.3,63.7
	c0.6-0.6,1-1.2,1.5-1.9c1.9-3,1.9-6.8,0.2-9.9c-1.8-3.3-5.3-5.3-9-5.3H41.8c-1.1,0-1.9,0.9-1.9,1.9v21.1c0,3.7,2,7.2,5.3,9
	c1.5,0.9,3.2,1.3,4.9,1.3c1.8,0,3.5-0.5,5.1-1.5c0.7-0.4,1.3-0.9,1.9-1.5c2.8-2.8,3.8-6.6,3.1-10.2C63.7,67.5,67.5,66.4,70.3,63.7z
	 M54.3,60.9c-0.4,0.4-0.6,0.9-0.6,1.4c0,0.5,0.2,1,0.6,1.4c2.9,2.9,2.9,7.7,0,10.6c-0.3,0.3-0.7,0.6-1.1,0.9c-1.8,1.1-4.1,1.2-6,0.1
	C45,74,43.8,72,43.8,69.6V50.4h19.2c2.4,0,4.5,1.2,5.6,3.3c1.1,1.9,1.1,4.2-0.1,6c-0.3,0.4-0.6,0.8-0.9,1.1c-2.9,2.9-7.7,2.9-10.6,0
	C56.2,60.2,55,60.2,54.3,60.9z M33,13c-3.2-1.8-6.9-1.7-9.9,0.2c-0.7,0.4-1.3,0.9-1.9,1.5c-2.8,2.8-3.8,6.6-3.1,10.2
	c-3.6-0.7-7.4,0.3-10.2,3.1c-0.6,0.6-1,1.2-1.5,1.8c-1.9,3-1.9,6.8-0.2,9.9c1.8,3.3,5.3,5.3,9,5.3h21.1c1.1,0,1.9-0.9,1.9-1.9V21.9
	C38.3,18.2,36.3,14.8,33,13z M34.4,41.1H15.3c-2.4,0-4.5-1.2-5.6-3.3c-1.1-1.9-1.1-4.2,0.1-6c0.3-0.4,0.6-0.8,0.9-1.1
	c1.5-1.5,3.4-2.2,5.3-2.2c1.9,0,3.8,0.7,5.3,2.2c0.8,0.8,2,0.8,2.7,0c0.4-0.4,0.6-0.9,0.6-1.4s-0.2-1-0.6-1.4
	c-2.9-2.9-2.9-7.7,0-10.6c0.3-0.3,0.7-0.6,1.1-0.9c1.8-1.1,4.1-1.2,6-0.1c2.1,1.2,3.3,3.3,3.3,5.6V41.1z M94.4,85.7
	c-1.8,1.8-4,2.6-6.6,2.6c-0.3,0-0.7,0-1,0C77,87.5,64.5,74.6,62.6,71.9c-0.6-0.9-0.4-2.1,0.4-2.7c0.9-0.6,2.1-0.4,2.7,0.4
	c1.9,2.7,13.6,14.1,21.4,14.7c1.9,0.2,3.4-0.3,4.5-1.5c0.8-0.8,2-0.8,2.7,0C95.2,83.7,95.2,84.9,94.4,85.7z"/>
</svg>
